# xmcd
#
# Track frame offsets:
#	150
#	13350
#	26597
#	39519
#	50801
#	61295
#	74735
#	87414
#	102611
#	113330
#	123591
#	133723
#
# Disc length: 1955 seconds
#
# Revision: 1
# Processed by: cddbd v1.5.2PL0 Copyright (c) Steve Scherf et al.
# Submitted via: audiograbber 1.83.01
#
DISCID=b207a10c
DTITLE=Lindsay Butler - Picks On The Music Of Shorty Ranger
DYEAR=2008
DGENRE=Country
TTITLE0=Winter Winds
TTITLE1=The Ballad Of Port Mc Quarie
TTITLE2=Jackaranda Blue
TTITLE3=The Big Banana Land
TTITLE4=God's Garden Of Love
TTITLE5=Roses In The Spring
TTITLE6=Call Of Spring 
TTITLE7=Whispering Wind
TTITLE8=Ramblin' Guitar
TTITLE9=The White Backed Swallow
TTITLE10=Over The Valley
TTITLE11=West Of Willow Bend
EXTD=
EXTT0=
EXTT1=
EXTT2=
EXTT3=
EXTT4=
EXTT5=
EXTT6=
EXTT7=
EXTT8=
EXTT9=
EXTT10=
EXTT11=
PLAYORDER=
